Coordinates
version=1
nRows=14
nColumns=40
inDegrees=yes

Units are S.I. units (second, meters, Newtons, ...)
If the header above contains a line with 'inDegrees', this indicates whether rotational values are in degrees (yes) or radians (no).

endheader
time	pelvis_tilt	pelvis_list	pelvis_rotation	pelvis_tx	pelvis_ty	pelvis_tz	hip_flexion_r	hip_adduction_r	hip_rotation_r	knee_angle_r	knee_angle_r_beta	ankle_angle_r	subtalar_angle_r	mtp_angle_r	hip_flexion_l	hip_adduction_l	hip_rotation_l	knee_angle_l	knee_angle_l_beta	ankle_angle_l	subtalar_angle_l	mtp_angle_l	lumbar_extension	lumbar_bending	lumbar_rotation	arm_flex_r	arm_add_r	arm_rot_r	elbow_flex_r	pro_sup_r	wrist_flex_r	wrist_dev_r	arm_flex_l	arm_add_l	arm_rot_l	elbow_flex_l	pro_sup_l	wrist_flex_l	wrist_dev_l
      2.42000000	    -23.26190516	     -5.87920643	     -0.31606723	      0.12071622	      0.52065500	     -1.19234723	     92.73922790	    -42.53665041	      0.52029801	    107.82438773	      1.88189058	     32.65680137	      4.73575231	      0.00000000	    108.76417660	    -43.33574381	     17.28577107	    107.44415736	      1.87525431	     33.08757982	     17.40043571	      0.00000000	    -20.85326148	      5.84148060	      2.15006039	     44.99991854	    -14.99999999	     44.99991854	     75.00017585	     45.00000026	      0.00000000	      0.00000000	     44.99991854	    -14.99999999	     44.99991854	     75.00017585	     45.00000026	      0.00000000	      0.00000000
      2.42500000	    -23.22656984	     -5.94866352	     -0.29314494	      0.12025761	      0.52629743	     -1.19224180	     91.76198075	    -42.27588423	     -0.36057975	    106.94715628	      1.86658000	     32.04472469	      3.75387761	      0.00000000	    107.83332612	    -43.29587597	     16.55083719	    106.57091640	      1.86001338	     32.58433363	     16.67928050	      0.00000000	    -21.04860550	      5.92003741	      2.23178097	     44.99991855	    -14.99999999	     44.99991855	     75.00017585	     45.00000026	      0.00000000	      0.00000000	     44.99991855	    -14.99999999	     44.99991855	     75.00017585	     45.00000026	      0.00000000	      0.00000000
      2.43000000	    -23.68286930	     -5.96777385	     -0.31780807	      0.12014173	      0.53007934	     -1.19198432	     91.53335770	    -42.10819066	     -0.92844412	    106.30785624	      1.85542211	     31.90669545	      3.85925808	      0.00000000	    107.60723910	    -43.32980010	     15.95919956	    105.88728621	      1.84808178	     32.44558947	     16.78655311	      0.00000000	    -20.46618720	      5.91048101	      2.23575412	     44.99991855	    -14.99999999	     44.99991855	     75.00017585	     45.00000026	      0.00000000	      0.00000000	     44.99991855	    -14.99999999	     44.99991855	     75.00017585	     45.00000026	      0.00000000	      0.00000000
      2.43500000	    -24.11437933	     -5.98867256	     -0.34521866	      0.11992735	      0.53407741	     -1.19172214	     91.25741804	    -41.88871628	     -1.49769379	    105.61944072	      1.84340699	     31.72250359	      3.86142468	      0.00000000	    107.30451889	    -43.31948527	     15.37841124	    105.15911486	      1.83537279	     32.24136188	     16.79129022	      0.00000000	    -19.91958973	      5.91252323	      2.23905617	     44.99991855	    -14.99999999	     44.99991855	     75.00017585	     45.00000026	      0.00000000	      0.00000000	     44.99991855	    -14.99999999	     44.99991855	     75.00017585	     45.00000026	      0.00000000	      0.00000000
      2.44000000	    -23.97029428	     -6.07570575	     -0.35718292	      0.11974988	      0.54000541	     -1.19152868	     90.10414370	    -41.60603711	     -2.44166877	    104.69986374	      1.82735735	     31.13453725	      2.94327236	      0.00000000	    106.27203379	    -43.37389883	     14.67716533	    104.25978530	      1.81967653	     31.74540371	     16.15281920	      0.00000000	    -20.20267747	      5.98035832	      2.33207510	     44.99991856	    -14.99999999	     44.99991856	     75.00017585	     45.00000026	      0.00000000	      0.00000000	     44.99991856	    -14.99999999	     44.99991856	     75.00017585	     45.00000026	      0.00000000	      0.00000000
      2.44500000	    -24.41626824	     -6.09805118	     -0.38647246	      0.11977673	      0.54382093	     -1.19125172	     89.85063256	    -41.42747465	     -3.00119002	    104.04480085	      1.81592434	     31.00281358	      3.06884203	      0.00000000	    106.02518772	    -43.41292455	     14.10081850	    103.57315532	      1.80769258	     31.61129299	     16.28343260	      0.00000000	    -19.56702317	      5.97879024	      2.33430810	     44.99991856	    -14.99999999	     44.99991856	     75.00017585	     45.00000026	      0.00000000	      0.00000000	     44.99991856	    -14.99999999	     44.99991856	     75.00017585	     45.00000026	      0.00000000	      0.00000000
      2.45000000	    -24.36073427	     -6.19306953	     -0.42168260	      0.11973660	      0.54939658	     -1.19099691	     88.80471346	    -41.12217648	     -3.86260312	    103.14574538	      1.80023287	     30.59863704	      2.53988298	      0.00000000	    105.13202944	    -43.47733932	     13.50645133	    102.70016667	      1.79245605	     31.23710663	     15.97448155	      0.00000000	    -19.67653481	      6.02491754	      2.43243872	     44.99991857	    -14.99999999	     44.99991857	     75.00017585	     45.00000026	      0.00000000	      0.00000000	     44.99991857	    -14.99999999	     44.99991857	     75.00017585	     45.00000026	      0.00000000	      0.00000000
      2.45500000	    -24.81262307	     -6.21745378	     -0.45522740	      0.11982820	      0.55325449	     -1.19070174	     88.55387799	    -40.93981543	     -4.43793724	    102.47366937	      1.78850293	     30.46221489	      2.65526326	      0.00000000	    104.87993135	    -43.53299555	     12.91104060	    101.98961310	      1.78005455	     31.09044806	     16.09403829	      0.00000000	    -19.02275859	      6.04822495	      2.42752353	     44.99991857	    -14.99999999	     44.99991857	     75.00017585	     45.00000026	      0.00000000	      0.00000000	     44.99991857	    -14.99999999	     44.99991857	     75.00017585	     45.00000026	      0.00000000	      0.00000000
      2.46000000	    -25.21007624	     -6.25342255	     -0.49353788	      0.11969308	      0.55747285	     -1.19039483	     88.20879361	    -40.66392456	     -5.00797061	    101.71002060	      1.77517474	     30.25731433	      2.63323826	      0.00000000	    104.50785883	    -43.50463699	     12.35812498	    101.19052504	      1.76610783	     30.84181792	     16.10235414	      0.00000000	    -18.49404929	      6.06270900	      2.43526626	     44.99991857	    -14.99999999	     44.99991857	     75.00017585	     45.00000026	      0.00000000	      0.00000000	     44.99991857	    -14.99999999	     44.99991857	     75.00017585	     45.00000026	      0.00000000	      0.00000000
      2.46500000	    -25.59864464	     -6.27390414	     -0.53859887	      0.11982979	      0.56155307	     -1.19006503	     87.86981923	    -40.46758411	     -5.62056659	    100.98458956	      1.76251358	     30.05877021	      2.60595681	      0.00000000	    104.17483708	    -43.57264828	     11.75331185	    100.45682705	      1.75330239	     30.61706943	     16.10300449	      0.00000000	    -17.91202612	      6.06102042	      2.44304524	     44.99991857	    -14.99999999	     44.99991857	     75.00017585	     45.00000026	      0.00000000	      0.00000000	     44.99991857	    -14.99999999	     44.99991857	     75.00017585	     45.00000026	      0.00000000	      0.00000000
      2.47000000	    -25.95211483	     -6.30676364	     -0.58359171	      0.11992566	      0.56580926	     -1.18975174	     87.47116781	    -40.22005224	     -6.19801300	    100.20567122	      1.74891889	     29.82261727	      2.51156688	      0.00000000	    103.76549073	    -43.60679797	     11.19114015	     99.65694692	      1.73934185	     30.34468077	     16.06254522	      0.00000000	    -17.37957655	      6.06796772	      2.45270615	     44.99991857	    -14.99999999	     44.99991857	     75.00017585	     45.00000026	      0.00000000	      0.00000000	     44.99991857	    -14.99999999	     44.99991857	     75.00017585	     45.00000026	      0.00000000	      0.00000000
      2.47500000	    -25.12021317	     -6.47653222	     -0.66219648	      0.12044503	      0.57367233	     -1.18939656	     85.30953317	    -39.73888517	     -7.39718879	     99.04643770	      1.72868645	     29.14543198	      1.37567788	      0.00000000	    101.91158538	    -43.94383183	     10.45632044	     98.60744162	      1.72102452	     29.91522281	     15.66859143	      0.00000000	    -18.47053366	      6.16449946	      2.72140945	     44.99991859	    -14.99999999	     44.99991859	     75.00017585	     45.00000026	      0.00000000	      0.00000000	     44.99991859	    -14.99999999	     44.99991859	     75.00017585	     45.00000026	      0.00000000	      0.00000000
      2.48000000	    -25.54965117	     -6.50819119	     -0.69535749	      0.12069021	      0.57754075	     -1.18905757	     85.02490127	    -39.53277145	     -7.95288831	     98.34059501	      1.71636717	     29.03096273	      1.51047191	      0.00000000	    101.62614381	    -43.97457112	      9.89721107	     97.87526054	      1.70824555	     29.73661526	     15.78191437	      0.00000000	    -17.76967927	      6.17720539	      2.72912080	     44.99991859	    -14.99999999	     44.99991859	     75.00017585	     45.00000026	      0.00000000	      0.00000000	     44.99991859	    -14.99999999	     44.99991859	     75.00017585	     45.00000026	      0.00000000	      0.00000000
      2.48500000	    -25.95625080	     -6.53710923	     -0.73800266	      0.12088986	      0.58160409	     -1.18872475	     84.70380866	    -39.30007088	     -8.50752948	     97.56927350	      1.70290507	     28.86880325	      1.56138504	      0.00000000	    101.28828610	    -43.99626291	      9.33706833	     97.08955207	      1.69453235	     29.50274451	     15.83565290	      0.00000000	    -17.12984064	      6.19809757	      2.73479627	     44.99991859	    -14.99999999	     44.99991859	     75.00017585	     45.00000026	      0.00000000	      0.00000000	     44.99991859	    -14.99999999	     44.99991859	     75.00017585	     45.00000026	      0.00000000	      0.00000000
